<mxfile host="app.diagrams.net" modified="2023-09-25T06:20:49.604Z" agent="Mozilla/5.0 (Windows NT 10.0; Win64; x64) AppleWebKit/537.36 (KHTML, like Gecko) Chrome/116.0.0.0 Safari/537.36" etag="4V2Az3FdA_JMAREQnCej" version="21.8.2" type="github">
  <diagram name="Page-1" id="UmZUJm98hy-MjdlWRy2L">
    <mxGraphModel dx="1195" dy="752" grid="1" gridSize="10" guides="1" tooltips="1" connect="1" arrows="1" fold="1" page="1" pageScale="1" pageWidth="850" pageHeight="1100" math="0" shadow="0">
      <root>
        <mxCell id="0" />
        <mxCell id="1" parent="0" />
        <mxCell id="IkE8e9DSJf4OaHcmCH7N-23" value="" style="group" vertex="1" connectable="0" parent="1">
          <mxGeometry x="602" y="600" width="160" height="94.39999999999998" as="geometry" />
        </mxCell>
        <mxCell id="IkE8e9DSJf4OaHcmCH7N-15" value="" style="shadow=0;dashed=0;html=1;strokeColor=none;fillColor=#4495D1;labelPosition=center;verticalLabelPosition=bottom;verticalAlign=top;align=center;outlineConnect=0;shape=mxgraph.veeam.portal_admin;" vertex="1" parent="IkE8e9DSJf4OaHcmCH7N-23">
          <mxGeometry x="57.799999999999955" width="52.2" height="54.4" as="geometry" />
        </mxCell>
        <mxCell id="IkE8e9DSJf4OaHcmCH7N-19" value="&lt;b&gt;Admin&lt;/b&gt;" style="text;html=1;strokeColor=none;fillColor=none;align=center;verticalAlign=middle;whiteSpace=wrap;rounded=0;" vertex="1" parent="IkE8e9DSJf4OaHcmCH7N-23">
          <mxGeometry y="60.39999999999998" width="160" height="30" as="geometry" />
        </mxCell>
        <mxCell id="IkE8e9DSJf4OaHcmCH7N-33" value="" style="group" vertex="1" connectable="0" parent="1">
          <mxGeometry x="80" y="360" width="690" height="167.51" as="geometry" />
        </mxCell>
        <mxCell id="IkE8e9DSJf4OaHcmCH7N-20" value="" style="group" vertex="1" connectable="0" parent="IkE8e9DSJf4OaHcmCH7N-33">
          <mxGeometry width="170" height="167.51" as="geometry" />
        </mxCell>
        <mxCell id="IkE8e9DSJf4OaHcmCH7N-3" value="" style="sketch=0;html=1;dashed=0;whitespace=wrap;fillColor=#2875E2;strokeColor=#ffffff;points=[[0.005,0.63,0],[0.1,0.2,0],[0.9,0.2,0],[0.5,0,0],[0.995,0.63,0],[0.72,0.99,0],[0.5,1,0],[0.28,0.99,0]];verticalLabelPosition=bottom;align=center;verticalAlign=top;shape=mxgraph.kubernetes.icon;prIcon=api" vertex="1" parent="IkE8e9DSJf4OaHcmCH7N-20">
          <mxGeometry width="170" height="127.5" as="geometry" />
        </mxCell>
        <mxCell id="IkE8e9DSJf4OaHcmCH7N-6" value="&lt;b&gt;TIMESHEET REST-Ful API&lt;/b&gt;" style="text;html=1;strokeColor=none;fillColor=none;align=center;verticalAlign=middle;whiteSpace=wrap;rounded=0;" vertex="1" parent="IkE8e9DSJf4OaHcmCH7N-20">
          <mxGeometry y="137.51" width="160" height="30" as="geometry" />
        </mxCell>
        <mxCell id="IkE8e9DSJf4OaHcmCH7N-24" value="" style="group" vertex="1" connectable="0" parent="IkE8e9DSJf4OaHcmCH7N-33">
          <mxGeometry x="225" y="33.870000000000005" width="80" height="103.63999999999999" as="geometry" />
        </mxCell>
        <mxCell id="IkE8e9DSJf4OaHcmCH7N-2" value="" style="outlineConnect=0;dashed=0;verticalLabelPosition=bottom;verticalAlign=top;align=center;html=1;shape=mxgraph.aws3.flow_logs;fillColor=#F58536;gradientColor=none;" vertex="1" parent="IkE8e9DSJf4OaHcmCH7N-24">
          <mxGeometry x="10" width="60" height="59.75" as="geometry" />
        </mxCell>
        <mxCell id="IkE8e9DSJf4OaHcmCH7N-13" value="&lt;b&gt;Logs&lt;/b&gt;" style="text;html=1;strokeColor=none;fillColor=none;align=center;verticalAlign=middle;whiteSpace=wrap;rounded=0;" vertex="1" parent="IkE8e9DSJf4OaHcmCH7N-24">
          <mxGeometry y="73.63999999999999" width="80" height="30" as="geometry" />
        </mxCell>
        <mxCell id="IkE8e9DSJf4OaHcmCH7N-25" value="" style="group" vertex="1" connectable="0" parent="IkE8e9DSJf4OaHcmCH7N-33">
          <mxGeometry x="370" y="36.94" width="80" height="103.63999999999999" as="geometry" />
        </mxCell>
        <mxCell id="IkE8e9DSJf4OaHcmCH7N-5" value="" style="sketch=0;points=[[0,0,0],[0.25,0,0],[0.5,0,0],[0.75,0,0],[1,0,0],[0,1,0],[0.25,1,0],[0.5,1,0],[0.75,1,0],[1,1,0],[0,0.25,0],[0,0.5,0],[0,0.75,0],[1,0.25,0],[1,0.5,0],[1,0.75,0]];points=[[0,0,0],[0.25,0,0],[0.5,0,0],[0.75,0,0],[1,0,0],[0,1,0],[0.25,1,0],[0.5,1,0],[0.75,1,0],[1,1,0],[0,0.25,0],[0,0.5,0],[0,0.75,0],[1,0.25,0],[1,0.5,0],[1,0.75,0]];outlineConnect=0;fontColor=#232F3E;fillColor=#E7157B;strokeColor=#ffffff;dashed=0;verticalLabelPosition=bottom;verticalAlign=top;align=center;html=1;fontSize=12;fontStyle=0;aspect=fixed;shape=mxgraph.aws4.resourceIcon;resIcon=mxgraph.aws4.managed_service_for_grafana;" vertex="1" parent="IkE8e9DSJf4OaHcmCH7N-25">
          <mxGeometry x="12.620000000000005" width="54.75" height="54.75" as="geometry" />
        </mxCell>
        <mxCell id="IkE8e9DSJf4OaHcmCH7N-14" value="&lt;b&gt;Promtail/Loki&lt;/b&gt;" style="text;html=1;strokeColor=none;fillColor=none;align=center;verticalAlign=middle;whiteSpace=wrap;rounded=0;" vertex="1" parent="IkE8e9DSJf4OaHcmCH7N-25">
          <mxGeometry y="73.63999999999999" width="80" height="30" as="geometry" />
        </mxCell>
        <mxCell id="IkE8e9DSJf4OaHcmCH7N-26" value="" style="group" vertex="1" connectable="0" parent="IkE8e9DSJf4OaHcmCH7N-33">
          <mxGeometry x="525.8" width="164.20000000000005" height="157.5" as="geometry" />
        </mxCell>
        <mxCell id="IkE8e9DSJf4OaHcmCH7N-4" value="" style="image;aspect=fixed;html=1;points=[];align=center;fontSize=12;image=img/lib/azure2/other/Grafana.svg;" vertex="1" parent="IkE8e9DSJf4OaHcmCH7N-26">
          <mxGeometry width="164.2" height="127.5" as="geometry" />
        </mxCell>
        <mxCell id="IkE8e9DSJf4OaHcmCH7N-7" value="&lt;b&gt;GRAFANA DASHBOARD&lt;/b&gt;" style="text;html=1;strokeColor=none;fillColor=none;align=center;verticalAlign=middle;whiteSpace=wrap;rounded=0;" vertex="1" parent="IkE8e9DSJf4OaHcmCH7N-26">
          <mxGeometry y="127.5" width="160" height="30" as="geometry" />
        </mxCell>
        <mxCell id="IkE8e9DSJf4OaHcmCH7N-27" value="" style="edgeStyle=orthogonalEdgeStyle;rounded=0;orthogonalLoop=1;jettySize=auto;html=1;" edge="1" parent="IkE8e9DSJf4OaHcmCH7N-33" source="IkE8e9DSJf4OaHcmCH7N-3" target="IkE8e9DSJf4OaHcmCH7N-2">
          <mxGeometry relative="1" as="geometry" />
        </mxCell>
        <mxCell id="IkE8e9DSJf4OaHcmCH7N-30" value="produce" style="edgeLabel;html=1;align=center;verticalAlign=middle;resizable=0;points=[];" vertex="1" connectable="0" parent="IkE8e9DSJf4OaHcmCH7N-27">
          <mxGeometry x="-0.5487" y="-7" relative="1" as="geometry">
            <mxPoint x="15" as="offset" />
          </mxGeometry>
        </mxCell>
        <mxCell id="IkE8e9DSJf4OaHcmCH7N-28" value="" style="edgeStyle=orthogonalEdgeStyle;rounded=0;orthogonalLoop=1;jettySize=auto;html=1;" edge="1" parent="IkE8e9DSJf4OaHcmCH7N-33" source="IkE8e9DSJf4OaHcmCH7N-5" target="IkE8e9DSJf4OaHcmCH7N-2">
          <mxGeometry relative="1" as="geometry" />
        </mxCell>
        <mxCell id="IkE8e9DSJf4OaHcmCH7N-31" value="ingest" style="edgeLabel;html=1;align=center;verticalAlign=middle;resizable=0;points=[];" vertex="1" connectable="0" parent="IkE8e9DSJf4OaHcmCH7N-28">
          <mxGeometry x="0.0424" y="2" relative="1" as="geometry">
            <mxPoint x="7" y="6" as="offset" />
          </mxGeometry>
        </mxCell>
        <mxCell id="IkE8e9DSJf4OaHcmCH7N-29" value="" style="edgeStyle=orthogonalEdgeStyle;rounded=0;orthogonalLoop=1;jettySize=auto;html=1;" edge="1" parent="IkE8e9DSJf4OaHcmCH7N-33" source="IkE8e9DSJf4OaHcmCH7N-5" target="IkE8e9DSJf4OaHcmCH7N-4">
          <mxGeometry relative="1" as="geometry" />
        </mxCell>
        <mxCell id="IkE8e9DSJf4OaHcmCH7N-32" value="push" style="edgeLabel;html=1;align=center;verticalAlign=middle;resizable=0;points=[];" vertex="1" connectable="0" parent="IkE8e9DSJf4OaHcmCH7N-29">
          <mxGeometry x="-0.1124" y="-2" relative="1" as="geometry">
            <mxPoint x="5" y="5" as="offset" />
          </mxGeometry>
        </mxCell>
        <mxCell id="IkE8e9DSJf4OaHcmCH7N-35" value="" style="edgeStyle=orthogonalEdgeStyle;rounded=0;orthogonalLoop=1;jettySize=auto;html=1;" edge="1" parent="1" source="IkE8e9DSJf4OaHcmCH7N-34" target="IkE8e9DSJf4OaHcmCH7N-6">
          <mxGeometry relative="1" as="geometry" />
        </mxCell>
        <mxCell id="IkE8e9DSJf4OaHcmCH7N-36" value="consumes" style="edgeLabel;html=1;align=center;verticalAlign=middle;resizable=0;points=[];" vertex="1" connectable="0" parent="IkE8e9DSJf4OaHcmCH7N-35">
          <mxGeometry x="0.0066" relative="1" as="geometry">
            <mxPoint as="offset" />
          </mxGeometry>
        </mxCell>
        <mxCell id="IkE8e9DSJf4OaHcmCH7N-34" value="&lt;b&gt;API Consumer&lt;/b&gt;" style="shape=umlActor;verticalLabelPosition=bottom;verticalAlign=top;html=1;outlineConnect=0;" vertex="1" parent="1">
          <mxGeometry x="145" y="600" width="30" height="60" as="geometry" />
        </mxCell>
        <mxCell id="IkE8e9DSJf4OaHcmCH7N-37" value="" style="edgeStyle=orthogonalEdgeStyle;rounded=0;orthogonalLoop=1;jettySize=auto;html=1;" edge="1" parent="1" source="IkE8e9DSJf4OaHcmCH7N-15" target="IkE8e9DSJf4OaHcmCH7N-7">
          <mxGeometry relative="1" as="geometry" />
        </mxCell>
        <mxCell id="IkE8e9DSJf4OaHcmCH7N-38" value="view and manages" style="edgeLabel;html=1;align=center;verticalAlign=middle;resizable=0;points=[];" vertex="1" connectable="0" parent="IkE8e9DSJf4OaHcmCH7N-37">
          <mxGeometry x="-0.001" y="-1" relative="1" as="geometry">
            <mxPoint as="offset" />
          </mxGeometry>
        </mxCell>
        <mxCell id="IkE8e9DSJf4OaHcmCH7N-39" value="&lt;b&gt;&lt;font style=&quot;font-size: 28px;&quot;&gt;Architecture Overview&lt;/font&gt;&lt;/b&gt;" style="text;html=1;strokeColor=none;fillColor=none;align=center;verticalAlign=middle;whiteSpace=wrap;rounded=0;" vertex="1" parent="1">
          <mxGeometry x="253" y="280" width="345" height="30" as="geometry" />
        </mxCell>
      </root>
    </mxGraphModel>
  </diagram>
</mxfile>
